<svg viewBox="0 0 14 17" fill="none" xmlns="http://www.w3.org/2000/svg">
<path d="M2.75333 1.88889C2.8 2.72944 2.91667 3.55111 3.10333 4.335L2.17 5.46833C1.85111 4.335 1.64889 3.13556 1.57889 1.88889H2.75333ZM10.4222 13.2411C11.0833 13.4678 11.76 13.6094 12.4444 13.6661V15.0733C11.4178 14.9883 10.43 14.7428 9.48889 14.365L10.4222 13.2411ZM3.5 0H0.777778C0.35 0 0 0.425 0 0.944444C0 9.81278 5.91889 17 13.2222 17C13.65 17 14 16.575 14 16.0556V12.7594C14 12.24 13.65 11.815 13.2222 11.815C12.2578 11.815 11.3167 11.6261 10.4456 11.2767C10.3678 11.2389 10.2822 11.2294 10.2044 11.2294C10.0022 11.2294 9.80778 11.3239 9.65222 11.5033L7.94111 13.5811C5.74 12.2117 3.93556 10.03 2.81556 7.35722L4.52667 5.27944C4.74444 5.015 4.80667 4.64667 4.72111 4.31611C4.43333 3.25833 4.27778 2.125 4.27778 0.944444C4.27778 0.425 3.92778 0 3.5 0Z" class="icon-phone-color"/>
</svg>
