<svg width="26" height="22" viewBox="0 0 26 22" fill="none" xmlns="http://www.w3.org/2000/svg">
<path d="M5.41667 2.44444C5.5 3.53222 5.70833 4.59556 6.04167 5.61L4.375 7.07667C3.80556 5.61 3.44444 4.05778 3.31944 2.44444H5.41667ZM19.1111 17.1356C20.2917 17.4289 21.5 17.6122 22.7222 17.6856V19.5067C20.8889 19.3967 19.125 19.0789 17.4444 18.59L19.1111 17.1356ZM6.75 0H1.88889C1.125 0 0.5 0.55 0.5 1.22222C0.5 12.6989 11.0694 22 24.1111 22C24.875 22 25.5 21.45 25.5 20.7778V16.5122C25.5 15.84 24.875 15.29 24.1111 15.29C22.3889 15.29 20.7083 15.0456 19.1528 14.5933C19.0139 14.5444 18.8611 14.5322 18.7222 14.5322C18.3611 14.5322 18.0139 14.6544 17.7361 14.8867L14.6806 17.5756C10.75 15.8033 7.52778 12.98 5.52778 9.52111L8.58333 6.83222C8.97222 6.49 9.08333 6.01333 8.93055 5.58556C8.41667 4.21667 8.13889 2.75 8.13889 1.22222C8.13889 0.55 7.51389 0 6.75 0Z" fill="#383838"/>
</svg>
