<svg width="33" height="30" viewBox="0 0 33 30" fill="none" xmlns="http://www.w3.org/2000/svg">
<g filter="url(#filter0_d_1297_229)">
<path d="M27.2159 0.013025C26.8003 -0.030061 26.3486 0.0333838 25.8948 0.208783C25.3321 0.425129 16.516 4.05065 8.29788 7.43273L5.5824 8.54999C4.53091 8.96679 4 9.64465 4 10.5577C4 11.197 4.27674 12.064 5.59705 12.575L10.1806 14.3702C10.577 15.5326 11.4975 18.2316 11.7289 18.949C11.8664 19.3744 12.2138 20.446 13.0915 20.6965C13.2715 20.7564 13.4594 20.7873 13.6507 20.7873C14.2046 20.7873 14.6034 20.5353 14.7984 20.3886L17.7117 17.9798L21.2501 21.1788C21.3864 21.3144 22.1077 22 23.0767 22C24.2857 22 25.2029 21.0161 25.3941 20.0639C25.4979 19.542 28.9106 2.79416 28.9106 2.79661C29.2169 1.45331 28.6661 0.756466 28.3123 0.459449C28.0091 0.205823 27.6314 0.0561108 27.2159 0.013025ZM26.388 2.65337C25.9167 4.96351 23.3471 17.5731 22.9571 19.3907L17.785 14.714L14.2758 17.6193L15.2477 13.9023C15.2477 13.9023 21.9525 7.26751 22.3563 6.88127C22.6814 6.57203 22.7495 6.46363 22.7495 6.35606C22.7495 6.21306 22.6742 6.11017 22.5004 6.11017C22.3441 6.11017 22.1319 6.25658 22.0193 6.32503C20.5898 7.1963 14.5027 10.5865 11.5066 12.2527L7.15992 10.5553L9.26978 9.68873C14.6448 7.47637 24.2175 3.53587 26.388 2.65337Z" fill="white"/>
</g>
<defs>
<filter id="filter0_d_1297_229" x="0" y="0" width="33" height="30" filterUnits="userSpaceOnUse" color-interpolation-filters="sRGB">
<feFlood flood-opacity="0" result="BackgroundImageFix"/>
<feColorMatrix in="SourceAlpha" type="matrix" values="0 0 0 0 0 0 0 0 0 0 0 0 0 0 0 0 0 0 127 0" result="hardAlpha"/>
<feOffset dy="4"/>
<feGaussianBlur stdDeviation="2"/>
<feComposite in2="hardAlpha" operator="out"/>
<feColorMatrix type="matrix" values="0 0 0 0 0 0 0 0 0 0 0 0 0 0 0 0 0 0 0.25 0"/>
<feBlend mode="normal" in2="BackgroundImageFix" result="effect1_dropShadow_1297_229"/>
<feBlend mode="normal" in="SourceGraphic" in2="effect1_dropShadow_1297_229" result="shape"/>
</filter>
</defs>
</svg>
