<svg width="50" height="50" viewBox="0 0 50 50" fill="none" xmlns="http://www.w3.org/2000/svg">
<path d="M42.8589 6.27464C42.1664 6.2012 41.4138 6.30934 40.6576 6.6083C39.7201 6.97705 25.03 13.1565 11.3363 18.9211L6.81152 20.8254C5.05944 21.5358 4.1748 22.6912 4.1748 24.2475C4.1748 25.337 4.63594 26.8149 6.83594 27.6858L14.4735 30.7457C15.1339 32.7269 16.6678 37.3271 17.0532 38.55C17.2824 39.275 17.8612 41.1015 19.3237 41.5285C19.6237 41.6306 19.9368 41.6832 20.2555 41.6832C21.1784 41.6832 21.843 41.2536 22.168 41.0036L27.0223 36.898L32.9183 42.3505C33.1454 42.5817 34.3473 43.7502 35.9619 43.7502C37.9765 43.7502 39.5047 42.0732 39.8234 40.4503C39.9963 39.5607 45.6828 11.0149 45.6828 11.0191C46.1932 8.72952 45.2755 7.5418 44.6859 7.03555C44.1807 6.60326 43.5513 6.34808 42.8589 6.27464ZM41.4795 10.775C40.6941 14.7125 36.4125 36.2049 35.7625 39.3028L27.1444 31.3316L21.2972 36.2836L22.9167 29.9481C22.9167 29.9481 34.0886 18.6395 34.7616 17.9812C35.3032 17.4541 35.4167 17.2693 35.4167 17.086C35.4167 16.8423 35.2912 16.6669 35.0016 16.6669C34.7412 16.6669 34.3875 16.9164 34.2 17.0331C31.8181 18.5181 21.6752 24.2966 16.6829 27.1365L9.4401 24.2434L12.9557 22.7663C21.912 18.9955 37.8628 12.2791 41.4795 10.775Z" fill="#383838"/>
</svg>
