<svg viewBox="0 0 21 18" fill="none" xmlns="http://www.w3.org/2000/svg">
<path d="M18.575 0.011175C18.2426 -0.0240751 17.8813 0.0278312 17.5183 0.171331C17.0683 0.348331 10.0171 3.31449 3.44409 6.08149L1.27222 6.99555C0.431217 7.33655 0.0065918 7.89113 0.0065918 8.63813C0.0065918 9.16113 0.227936 9.87052 1.28394 10.2885L4.94995 11.7573C5.26695 12.7083 6.00323 14.9164 6.18823 15.5034C6.29823 15.8514 6.57608 16.7281 7.27808 16.9331C7.42208 16.982 7.57234 17.0073 7.72534 17.0073C8.16834 17.0073 8.48731 16.8011 8.64331 16.6811L10.9734 14.7104L13.8035 17.3276C13.9125 17.4386 14.4894 17.9995 15.2644 17.9995C16.2314 17.9995 16.9649 17.1945 17.1179 16.4155C17.2009 15.9885 19.9304 2.28652 19.9304 2.28852C20.1754 1.18952 19.7349 0.619409 19.4519 0.376409C19.2094 0.168909 18.9073 0.046425 18.575 0.011175ZM17.9128 2.17133C17.5358 4.06133 15.4807 14.3777 15.1687 15.8647L11.032 12.0385L8.22534 14.4155L9.00269 11.3745C9.00269 11.3745 14.3652 5.94632 14.6882 5.63032C14.9482 5.37732 15.0027 5.28863 15.0027 5.20063C15.0027 5.08363 14.9425 4.99946 14.8035 4.99946C14.6785 4.99946 14.5087 5.11924 14.4187 5.17524C13.2754 5.88805 8.40678 8.6617 6.0105 10.0248L2.53394 8.63618L4.22144 7.92719C8.52044 6.11719 16.1768 2.89333 17.9128 2.17133Z" class="icon-network-color"/>
</svg>
