<svg width="50" height="50" viewBox="0 0 50 50" fill="none" xmlns="http://www.w3.org/2000/svg">
<path d="M25 4.1665C13.5187 4.1665 4.16666 13.5186 4.16666 24.9998C4.16666 36.4811 13.5187 45.8332 25 45.8332C36.4813 45.8332 45.8333 36.4811 45.8333 24.9998C45.8333 13.5186 36.4813 4.1665 25 4.1665ZM25 8.33317C34.2294 8.33317 41.6667 15.7704 41.6667 24.9998C41.6667 34.2293 34.2294 41.6665 25 41.6665C15.7706 41.6665 8.33332 34.2293 8.33332 24.9998C8.33332 15.7704 15.7706 8.33317 25 8.33317ZM13.4277 17.7082C12.634 17.7082 12.5 18.0972 12.5 18.5138C12.5 19.2659 13.1239 23.3259 16.5364 27.9946C19.0094 31.3821 22.2692 33.3332 25.1546 33.3332C26.9025 33.3332 27.0833 32.8876 27.0833 32.1938V29.0973C27.0833 28.2619 27.2758 28.1248 27.832 28.1248C28.2299 28.1248 29.0364 28.3853 30.5989 30.2082C32.401 32.3103 32.7272 33.3332 33.7606 33.3332H36.4909C37.1242 33.3332 37.4895 33.0686 37.5041 32.5519C37.5061 32.4207 37.4868 32.2709 37.443 32.1084C37.2409 31.5084 36.3166 30.0436 35.1603 28.6457C34.5186 27.8707 33.8874 27.1031 33.5978 26.6885C33.3999 26.4156 33.325 26.2248 33.3333 26.0415C33.3417 25.8498 33.4417 25.663 33.5937 25.4067C33.5667 25.4067 37.0911 20.4613 37.4349 18.7946C37.4828 18.6363 37.5062 18.4884 37.5 18.3592C37.4833 17.9821 37.2234 17.7082 36.6129 17.7082H33.8867C33.1992 17.7082 32.8799 18.1236 32.6945 18.5423C32.6945 18.5423 30.9969 22.0405 29.0364 24.3488C28.401 25.0155 28.0781 24.9998 27.7344 24.9998C27.551 24.9998 27.0833 24.7782 27.0833 24.1657V18.7661C27.0833 18.0432 26.9058 17.7082 26.3224 17.7082H21.4803C21.0553 17.7082 20.8333 18.0401 20.8333 18.3755C20.8333 19.0692 21.7687 19.2393 21.875 21.1872V24.9591C21.875 25.8758 21.7183 26.0415 21.3745 26.0415C20.4474 26.0415 18.622 22.9148 17.3991 18.819C17.1345 18.0128 16.8699 17.7082 16.1824 17.7082H13.4277Z" fill="#383838"/>
</svg>
