<svg viewBox="0 0 21 20" fill="none" xmlns="http://www.w3.org/2000/svg">
<path d="M10.0066 0C4.49559 0 0.0065918 4.489 0.0065918 10C0.0065918 15.511 4.49559 20 10.0066 20C15.5176 20 20.0066 15.511 20.0066 10C20.0066 4.489 15.5176 0 10.0066 0ZM10.0066 2C14.4367 2 18.0066 5.56988 18.0066 10C18.0066 14.4301 14.4367 18 10.0066 18C5.57647 18 2.00659 14.4301 2.00659 10C2.00659 5.56988 5.57647 2 10.0066 2ZM4.4519 6.5C4.0709 6.5 4.00659 6.68672 4.00659 6.88672C4.00659 7.24772 4.30609 9.1965 5.94409 11.4375C7.13109 13.0635 8.69581 14 10.0808 14C10.9198 14 11.0066 13.7861 11.0066 13.4531V11.9668C11.0066 11.5658 11.099 11.5 11.366 11.5C11.557 11.5 11.9441 11.625 12.6941 12.5C13.5591 13.509 13.7157 14 14.2117 14H15.5222C15.8262 14 16.0015 13.873 16.0085 13.625C16.0095 13.562 16.0002 13.4901 15.9792 13.4121C15.8822 13.1241 15.4385 12.421 14.8835 11.75C14.5755 11.378 14.2725 11.0095 14.1335 10.8105C14.0385 10.6795 14.0026 10.588 14.0066 10.5C14.0106 10.408 14.0586 10.3183 14.1316 10.1953C14.1186 10.1953 15.8103 7.82148 15.9753 7.02148C15.9983 6.94548 16.0096 6.8745 16.0066 6.8125C15.9986 6.6315 15.8738 6.5 15.5808 6.5H14.2722C13.9422 6.5 13.789 6.69939 13.7 6.90039C13.7 6.90039 12.8851 8.5795 11.9441 9.6875C11.6391 10.0075 11.4841 10 11.3191 10C11.2311 10 11.0066 9.89361 11.0066 9.59961V7.00781C11.0066 6.66081 10.9214 6.5 10.6414 6.5H8.31714C8.11314 6.5 8.00659 6.65931 8.00659 6.82031C8.00659 7.15331 8.45559 7.23492 8.50659 8.16992V9.98047C8.50659 10.4205 8.43136 10.5 8.26636 10.5C7.82136 10.5 6.94515 8.9992 6.35815 7.0332C6.23115 6.6462 6.10417 6.5 5.77417 6.5H4.4519Z" class="icon-network-color"/>
</svg>
