<svg width="50" height="50" viewBox="0 0 50 50" fill="none" xmlns="http://www.w3.org/2000/svg">
<path d="M25.0244 4.1665C13.5536 4.1665 4.2156 13.4965 4.21143 24.9673C4.20935 28.634 5.16973 32.2135 6.99056 35.3677L4.16667 45.8332L15.0676 43.2575C18.1071 44.9158 21.5289 45.7863 25.0122 45.7884H25.0203C36.4891 45.7884 45.823 36.4564 45.8293 24.9876C45.8334 19.4272 43.6712 14.1993 39.742 10.266C35.8129 6.3347 30.5911 4.16859 25.0244 4.1665ZM25.0203 8.33317C29.4703 8.33525 33.6523 10.0702 36.7961 13.2119C39.9398 16.3577 41.6668 20.5377 41.6626 24.9836C41.6584 34.1586 34.1954 41.6217 25.0163 41.6217C22.2392 41.6197 19.4884 40.9224 17.0654 39.5994L15.6616 38.8345L14.1113 39.2007L10.0098 40.1691L11.0107 36.45L11.4624 34.7817L10.5998 33.2843C9.14561 30.7677 8.37601 27.8902 8.3781 24.9673C8.38226 15.7965 15.8474 8.33317 25.0203 8.33317ZM17.6595 15.3644C17.3116 15.3644 16.7491 15.4946 16.272 16.0155C15.7949 16.5342 14.4491 17.7906 14.4491 20.349C14.4491 22.9073 16.3127 25.3803 16.5731 25.7282C16.8314 26.074 20.1703 31.4899 25.4557 33.5732C29.8474 35.3045 30.7394 34.9628 31.6935 34.8753C32.6477 34.7899 34.7717 33.62 35.2051 32.4054C35.6384 31.1909 35.6394 30.1461 35.5103 29.9315C35.3811 29.7148 35.0342 29.5856 34.5133 29.3252C33.9946 29.0648 31.4382 27.8095 30.9611 27.6366C30.484 27.4636 30.1351 27.3761 29.7892 27.897C29.4434 28.4178 28.4495 29.5856 28.1453 29.9315C27.8412 30.2794 27.5391 30.3262 27.0182 30.0658C26.4974 29.8033 24.8228 29.2528 22.8353 27.4819C21.2895 26.1049 20.2464 24.4058 19.9422 23.8849C19.6401 23.3662 19.9137 23.0813 20.1742 22.8229C20.4075 22.5896 20.6909 22.2156 20.9513 21.9115C21.2097 21.6073 21.2993 21.3906 21.4722 21.0448C21.6451 20.6989 21.5566 20.3937 21.4274 20.1333C21.2982 19.8729 20.2867 17.305 19.8242 16.2759C19.4346 15.4113 19.0232 15.3912 18.6523 15.3766C18.3503 15.3641 18.0053 15.3644 17.6595 15.3644Z" fill="#383838"/>
</svg>
