<svg width="20" height="20" viewBox="0 0 20 20" fill="none" xmlns="http://www.w3.org/2000/svg">
<path d="M10.0137 0C4.50767 0 0.0254375 4.47837 0.0234375 9.98438C0.0224375 11.7444 0.483422 13.4626 1.35742 14.9766L0.00195312 20L5.23438 18.7637C6.69338 19.5597 8.33581 19.9775 10.0078 19.9785H10.0117C15.5167 19.9785 19.997 15.4991 20 9.99414C20.002 7.32514 18.9641 4.81573 17.0781 2.92773C15.1921 1.04073 12.6857 0.001 10.0137 0ZM10.0117 2C12.1477 2.001 14.1551 2.8338 15.6641 4.3418C17.1731 5.8518 18.002 7.85819 18 9.99219C17.998 14.3962 14.4158 17.9785 10.0098 17.9785C8.67676 17.9775 7.35636 17.6428 6.19336 17.0078L5.51953 16.6406L4.77539 16.8164L2.80664 17.2812L3.28711 15.4961L3.50391 14.6953L3.08984 13.9766C2.39184 12.7686 2.02244 11.3874 2.02344 9.98438C2.02544 5.58238 5.60872 2 10.0117 2ZM6.47852 5.375C6.31152 5.375 6.0415 5.4375 5.8125 5.6875C5.5835 5.9365 4.9375 6.53958 4.9375 7.76758C4.9375 8.99558 5.83203 10.1826 5.95703 10.3496C6.08103 10.5156 7.6837 13.1152 10.2207 14.1152C12.3287 14.9462 12.7568 14.7822 13.2148 14.7402C13.6728 14.6992 14.6924 14.1377 14.9004 13.5547C15.1084 12.9717 15.1089 12.4702 15.0469 12.3672C14.9849 12.2632 14.8184 12.2012 14.5684 12.0762C14.3194 11.9512 13.0923 11.3486 12.8633 11.2656C12.6343 11.1826 12.4668 11.1406 12.3008 11.3906C12.1348 11.6406 11.6577 12.2012 11.5117 12.3672C11.3657 12.5342 11.2207 12.5566 10.9707 12.4316C10.7207 12.3056 9.91689 12.0414 8.96289 11.1914C8.22089 10.5304 7.72022 9.71484 7.57422 9.46484C7.42922 9.21584 7.56055 9.07908 7.68555 8.95508C7.79755 8.84308 7.93359 8.66358 8.05859 8.51758C8.18259 8.37158 8.22559 8.26756 8.30859 8.10156C8.39159 7.93556 8.34911 7.78906 8.28711 7.66406C8.22511 7.53906 7.73958 6.3065 7.51758 5.8125C7.33058 5.3975 7.13308 5.38786 6.95508 5.38086C6.81008 5.37486 6.64452 5.375 6.47852 5.375Z" fill="white"/>
</svg>
